<mxfile host="app.diagrams.net" agent="Mozilla/5.0 (Windows NT 10.0; Win64; x64) AppleWebKit/537.36 (KHTML, like Gecko) Chrome/142.0.0.0 Safari/537.36" version="28.2.8">
  <diagram name="Страница — 1" id="1SAdotuNfFa1nhlButA_">
    <mxGraphModel dx="1678" dy="2234" grid="1" gridSize="10" guides="1" tooltips="1" connect="1" arrows="1" fold="1" page="1" pageScale="1" pageWidth="827" pageHeight="1169" math="0" shadow="0">
      <root>
        <mxCell id="0" />
        <mxCell id="1" parent="0" />
        <mxCell id="oSJ8ocRw108igDsBbdK4-33" value="" style="rounded=0;whiteSpace=wrap;html=1;" vertex="1" parent="1">
          <mxGeometry x="100" y="250" width="620" height="400" as="geometry" />
        </mxCell>
        <mxCell id="oSJ8ocRw108igDsBbdK4-12" value="" style="rounded=0;whiteSpace=wrap;html=1;" vertex="1" parent="1">
          <mxGeometry x="20" y="-43.75" width="300" height="200" as="geometry" />
        </mxCell>
        <mxCell id="oSJ8ocRw108igDsBbdK4-15" value="" style="rounded=0;whiteSpace=wrap;html=1;" vertex="1" parent="1">
          <mxGeometry x="30" y="131.25" width="80" height="20" as="geometry" />
        </mxCell>
        <mxCell id="oSJ8ocRw108igDsBbdK4-17" value="" style="shape=tape;whiteSpace=wrap;html=1;" vertex="1" parent="1">
          <mxGeometry x="20" y="8.75" width="300" height="122.5" as="geometry" />
        </mxCell>
        <mxCell id="oSJ8ocRw108igDsBbdK4-16" value="" style="rounded=0;whiteSpace=wrap;html=1;" vertex="1" parent="1">
          <mxGeometry x="130" y="131.25" width="80" height="20" as="geometry" />
        </mxCell>
        <mxCell id="oSJ8ocRw108igDsBbdK4-18" value="" style="ellipse;whiteSpace=wrap;html=1;aspect=fixed;" vertex="1" parent="1">
          <mxGeometry x="200" width="112.5" height="112.5" as="geometry" />
        </mxCell>
        <mxCell id="oSJ8ocRw108igDsBbdK4-27" value="About me :)&lt;br&gt;1.cool&lt;div&gt;2.Funny&lt;br&gt;3.Polinka&lt;/div&gt;" style="text;html=1;whiteSpace=wrap;strokeColor=none;fillColor=none;align=center;verticalAlign=middle;rounded=0;" vertex="1" parent="1">
          <mxGeometry x="10" y="20" width="160" height="100" as="geometry" />
        </mxCell>
        <mxCell id="oSJ8ocRw108igDsBbdK4-29" value="Hello People !!!" style="text;html=1;whiteSpace=wrap;strokeColor=none;fillColor=none;align=center;verticalAlign=middle;rounded=0;" vertex="1" parent="1">
          <mxGeometry x="30" width="120" height="38.75" as="geometry" />
        </mxCell>
        <mxCell id="oSJ8ocRw108igDsBbdK4-58" value="" style="shape=tape;whiteSpace=wrap;html=1;" vertex="1" parent="1">
          <mxGeometry x="100" y="310" width="620" height="260" as="geometry" />
        </mxCell>
        <mxCell id="oSJ8ocRw108igDsBbdK4-30" value="" style="rounded=1;whiteSpace=wrap;html=1;" vertex="1" parent="1">
          <mxGeometry x="30" y="-20" width="280" height="10" as="geometry" />
        </mxCell>
        <mxCell id="oSJ8ocRw108igDsBbdK4-31" value="" style="rounded=0;whiteSpace=wrap;html=1;" vertex="1" parent="1">
          <mxGeometry x="230" y="131.25" width="80" height="20" as="geometry" />
        </mxCell>
        <mxCell id="oSJ8ocRw108igDsBbdK4-32" value="Actor" style="shape=umlActor;verticalLabelPosition=bottom;verticalAlign=top;html=1;outlineConnect=0;" vertex="1" parent="1">
          <mxGeometry x="220" y="10" width="70" height="88.75" as="geometry" />
        </mxCell>
        <mxCell id="oSJ8ocRw108igDsBbdK4-34" value="" style="shape=dataStorage;whiteSpace=wrap;html=1;fixedSize=1;rotation=-90;" vertex="1" parent="1">
          <mxGeometry x="270" y="290" width="272.5" height="195" as="geometry" />
        </mxCell>
        <mxCell id="oSJ8ocRw108igDsBbdK4-35" value="Actor" style="shape=umlActor;verticalLabelPosition=bottom;verticalAlign=top;html=1;outlineConnect=0;" vertex="1" parent="1">
          <mxGeometry x="341.25" y="305" width="130" height="190" as="geometry" />
        </mxCell>
        <mxCell id="oSJ8ocRw108igDsBbdK4-36" value="Hello&lt;div&gt;Ia Polinka y mena vse cool&lt;/div&gt;&lt;div&gt;vot moi works&lt;/div&gt;&lt;div&gt;zacenika kakie oni pricolnie&lt;/div&gt;" style="text;html=1;whiteSpace=wrap;strokeColor=none;fillColor=none;align=center;verticalAlign=middle;rounded=0;" vertex="1" parent="1">
          <mxGeometry x="20" y="267.5" width="360" height="240" as="geometry" />
        </mxCell>
        <mxCell id="oSJ8ocRw108igDsBbdK4-37" value="" style="shape=dataStorage;whiteSpace=wrap;html=1;fixedSize=1;rotation=-180;" vertex="1" parent="1">
          <mxGeometry x="130" y="465" width="110" height="30" as="geometry" />
        </mxCell>
        <mxCell id="oSJ8ocRw108igDsBbdK4-38" value="Moi Works" style="text;html=1;whiteSpace=wrap;strokeColor=none;fillColor=none;align=center;verticalAlign=middle;rounded=0;" vertex="1" parent="1">
          <mxGeometry x="155" y="465" width="60" height="30" as="geometry" />
        </mxCell>
        <mxCell id="oSJ8ocRw108igDsBbdK4-45" value="SAJHDHJASDJAS&lt;br&gt;AHSUDJO&lt;div&gt;&lt;br/&gt;&lt;/div&gt;" style="text;html=1;whiteSpace=wrap;strokeColor=none;fillColor=none;align=center;verticalAlign=middle;rounded=0;" vertex="1" parent="1">
          <mxGeometry x="140" y="300" width="120" height="50" as="geometry" />
        </mxCell>
        <mxCell id="oSJ8ocRw108igDsBbdK4-46" value="" style="shape=dataStorage;whiteSpace=wrap;html=1;fixedSize=1;rotation=-180;" vertex="1" parent="1">
          <mxGeometry x="130" y="520" width="110" height="30" as="geometry" />
        </mxCell>
        <mxCell id="oSJ8ocRw108igDsBbdK4-47" value="Npishi mne&amp;nbsp;" style="text;html=1;whiteSpace=wrap;strokeColor=none;fillColor=none;align=center;verticalAlign=middle;rounded=0;" vertex="1" parent="1">
          <mxGeometry x="155" y="520" width="60" height="30" as="geometry" />
        </mxCell>
        <mxCell id="oSJ8ocRw108igDsBbdK4-48" value="" style="ellipse;whiteSpace=wrap;html=1;" vertex="1" parent="1">
          <mxGeometry x="610" y="290" width="80" height="40" as="geometry" />
        </mxCell>
        <mxCell id="oSJ8ocRw108igDsBbdK4-49" value="" style="ellipse;whiteSpace=wrap;html=1;" vertex="1" parent="1">
          <mxGeometry x="610" y="360" width="80" height="40" as="geometry" />
        </mxCell>
        <mxCell id="oSJ8ocRw108igDsBbdK4-50" value="" style="ellipse;whiteSpace=wrap;html=1;" vertex="1" parent="1">
          <mxGeometry x="610" y="420" width="80" height="40" as="geometry" />
        </mxCell>
        <mxCell id="oSJ8ocRw108igDsBbdK4-51" value="" style="rounded=1;whiteSpace=wrap;html=1;" vertex="1" parent="1">
          <mxGeometry x="240" y="585" width="360" height="40" as="geometry" />
        </mxCell>
        <mxCell id="oSJ8ocRw108igDsBbdK4-53" value="" style="rounded=1;whiteSpace=wrap;html=1;" vertex="1" parent="1">
          <mxGeometry x="240" y="585" width="120" height="40" as="geometry" />
        </mxCell>
        <mxCell id="oSJ8ocRw108igDsBbdK4-54" value="" style="rounded=1;whiteSpace=wrap;html=1;" vertex="1" parent="1">
          <mxGeometry x="360" y="585" width="120" height="40" as="geometry" />
        </mxCell>
        <mxCell id="oSJ8ocRw108igDsBbdK4-55" value="" style="rounded=1;whiteSpace=wrap;html=1;" vertex="1" parent="1">
          <mxGeometry x="480" y="585" width="120" height="40" as="geometry" />
        </mxCell>
        <mxCell id="oSJ8ocRw108igDsBbdK4-56" value="" style="triangle;whiteSpace=wrap;html=1;" vertex="1" parent="1">
          <mxGeometry x="620" y="585" width="30" height="40" as="geometry" />
        </mxCell>
        <mxCell id="oSJ8ocRw108igDsBbdK4-57" value="" style="triangle;whiteSpace=wrap;html=1;rotation=-180;" vertex="1" parent="1">
          <mxGeometry x="190" y="585" width="30" height="40" as="geometry" />
        </mxCell>
        <mxCell id="oSJ8ocRw108igDsBbdK4-60" value="" style="rounded=0;whiteSpace=wrap;html=1;fillColor=none;" vertex="1" parent="1">
          <mxGeometry x="100" y="250" width="210" height="330" as="geometry" />
        </mxCell>
        <mxCell id="oSJ8ocRw108igDsBbdK4-61" value="" style="rounded=0;whiteSpace=wrap;html=1;fillColor=none;" vertex="1" parent="1">
          <mxGeometry x="308.5" y="250" width="201.5" height="330" as="geometry" />
        </mxCell>
        <mxCell id="oSJ8ocRw108igDsBbdK4-62" value="" style="rounded=0;whiteSpace=wrap;html=1;fillColor=none;" vertex="1" parent="1">
          <mxGeometry x="510" y="250" width="210" height="330" as="geometry" />
        </mxCell>
        <mxCell id="oSJ8ocRw108igDsBbdK4-63" value="" style="rounded=0;whiteSpace=wrap;html=1;fillColor=none;" vertex="1" parent="1">
          <mxGeometry x="102.5" y="430" width="207.5" height="150" as="geometry" />
        </mxCell>
        <mxCell id="oSJ8ocRw108igDsBbdK4-64" value="" style="ellipse;shape=cloud;whiteSpace=wrap;html=1;" vertex="1" parent="1">
          <mxGeometry x="346.25" y="250" width="120" height="80" as="geometry" />
        </mxCell>
        <mxCell id="oSJ8ocRw108igDsBbdK4-66" value="" style="rounded=0;whiteSpace=wrap;html=1;" vertex="1" parent="1">
          <mxGeometry x="80" y="760" width="660" height="530" as="geometry" />
        </mxCell>
        <mxCell id="oSJ8ocRw108igDsBbdK4-67" value="" style="rounded=0;whiteSpace=wrap;html=1;" vertex="1" parent="1">
          <mxGeometry x="290" y="830" width="256.25" height="430" as="geometry" />
        </mxCell>
        <mxCell id="oSJ8ocRw108igDsBbdK4-70" value="" style="triangle;whiteSpace=wrap;html=1;rotation=-180;" vertex="1" parent="1">
          <mxGeometry x="190" y="1225" width="50" height="35" as="geometry" />
        </mxCell>
        <mxCell id="oSJ8ocRw108igDsBbdK4-71" value="СЛАЙД1" style="text;html=1;whiteSpace=wrap;strokeColor=none;fillColor=none;align=center;verticalAlign=middle;rounded=0;" vertex="1" parent="1">
          <mxGeometry x="354" y="790" width="60" height="30" as="geometry" />
        </mxCell>
        <mxCell id="oSJ8ocRw108igDsBbdK4-75" value="СЛФЙД2" style="text;html=1;whiteSpace=wrap;strokeColor=none;fillColor=none;align=center;verticalAlign=middle;rounded=0;" vertex="1" parent="1">
          <mxGeometry x="250" y="760" width="60" height="30" as="geometry" />
        </mxCell>
        <mxCell id="oSJ8ocRw108igDsBbdK4-77" value="" style="triangle;whiteSpace=wrap;html=1;rotation=0;" vertex="1" parent="1">
          <mxGeometry x="590" y="1225" width="50" height="35" as="geometry" />
        </mxCell>
        <mxCell id="oSJ8ocRw108igDsBbdK4-78" value="" style="rounded=0;whiteSpace=wrap;html=1;" vertex="1" parent="1">
          <mxGeometry x="110" y="800" width="166.25" height="350" as="geometry" />
        </mxCell>
        <mxCell id="oSJ8ocRw108igDsBbdK4-79" style="edgeStyle=orthogonalEdgeStyle;rounded=0;orthogonalLoop=1;jettySize=auto;html=1;exitX=0;exitY=0.25;exitDx=0;exitDy=0;entryX=0;entryY=0.5;entryDx=0;entryDy=0;" edge="1" parent="1" source="oSJ8ocRw108igDsBbdK4-70" target="oSJ8ocRw108igDsBbdK4-70">
          <mxGeometry relative="1" as="geometry" />
        </mxCell>
        <mxCell id="oSJ8ocRw108igDsBbdK4-80" value="" style="rounded=0;whiteSpace=wrap;html=1;" vertex="1" parent="1">
          <mxGeometry x="553.75" y="790" width="166.25" height="350" as="geometry" />
        </mxCell>
        <mxCell id="oSJ8ocRw108igDsBbdK4-81" value="СЛФЙД3" style="text;html=1;whiteSpace=wrap;strokeColor=none;fillColor=none;align=center;verticalAlign=middle;rounded=0;" vertex="1" parent="1">
          <mxGeometry x="606.88" y="760" width="60" height="30" as="geometry" />
        </mxCell>
      </root>
    </mxGraphModel>
  </diagram>
</mxfile>
